# xmcd
#
# Track frame offsets: 
#        150
#        16660
#        31542
#        51240
#        65480
#        84082
#        100017
#        111612
#        129872
#        143357
#        156557
#        169335
#        184900
#
# Disc length: 2626 seconds
#
# Revision: 3
# Processed by: cddbd v1.5.1PL2 Copyright (c) Steve Scherf et al.
# Submitted via: ExactAudioCopy v0.95a5
#
DISCID=9f0a400d
DTITLE=Johnny Winter and Calvin 'Loudmouth' Johnson - Blues to the Bon
DTITLE=e
DYEAR=1995
DGENRE=blues 
TTITLE0=Late On Blues
TTITLE1=They Call Me Loudmouth
TTITLE2=Lien On Your Body
TTITLE3=Once I Had A Woman
TTITLE4=Take My Choice
TTITLE5=Unwelcome In Your Town
TTITLE6=Gangster Of Love
TTITLE7=Alone In My Bedroom
TTITLE8=Hootchie Cootchie Man
TTITLE9=Moth Balls
TTITLE10=She's Mine
TTITLE11=Unsatisfied Mind
TTITLE12=Rock Me Baby
EXTD=
EXTT0=
EXTT1=
EXTT2=
EXTT3=
EXTT4=
EXTT5=
EXTT6=
EXTT7=
EXTT8=
EXTT9=
EXTT10=
EXTT11=
EXTT12=
PLAYORDER=
